:SAMPLES-PER-SECOND 30
:FULLY-SPECIFIED
:DEGREES
623
root  -6.71898 39.2091 12.0973 -3.75975 -49.5494 4.71671
RightUpLeg  12.3341 -2.07543 0.926479
RightLeg  31.2052 10.1377 6.33301
RightFoot  43.4441 -10.605 20.9376
RightToes  -1.33073e-015 0 -3.6325e-017
Spine  -7.84283 28.7832 34.8302
Spine1  -9.35758 28.3613 -33.623
HEad  20.9988 -66.6856 -14.4963
LeftShoulder1  2.19806 -6.70612 -14.6681
LeftArm  -73.6984 -24.5208 -5.0591
LeftForeArm  177.305 -74.0224 -147.705
LeftHand  -0.246645 0.021 5.37786
RightShoulder  1.62872 8.49558 5.83415
RightArm  112.376 50.7488 166.659
RightForeArm  64.0922 64.95 17.4313
RightHand  -0.24729 -0.0210522 -5.37781
LeftUpLeg  -10.3701 -4.75734 -11.5309
LeftLeg  85.3622 -78.3039 -87.3329
LeftFoot  8.71703 3.60891 -20.5172
LeftToes  5.09284e-011 3.02203e-011 3.83118e-011
624
root  -6.75257 39.225 12.0366 -3.81569 -50.5764 4.98457
RightUpLeg  11.9605 -1.42661 0.719162
RightLeg  31.4531 10.3951 6.5599
RightFoot  43.4303 -10.6949 21.113
RightToes  -1.33073e-015 0 -3.6325e-017
Spine  -8.37374 28.1712 34.5301
Spine1  -8.45625 27.822 -32.6647
HEad  21.4526 -66.5433 -14.6564
LeftShoulder1  2.25159 -6.98131 -14.6067
LeftArm  -72.2886 -25.4802 -5.71213
LeftForeArm  173.626 -75.3048 -144.226
LeftHand  -0.246645 0.021 5.37786
RightShoulder  1.68472 8.59215 6.2326
RightArm  111.448 50.9563 165.845
RightForeArm  63.2768 63.8368 16.5144
RightHand  -0.24729 -0.0210522 -5.37781
LeftUpLeg  -10.598 -4.84168 -11.4291
LeftLeg  81.3186 -78.2999 -83.1701
LeftFoot  8.48604 3.49317 -20.1049
LeftToes  5.09284e-011 3.02203e-011 3.83118e-011
625
root  -6.78571 39.2354 11.9731 -4.01091 -51.7366 5.4003
RightUpLeg  11.5178 -0.74916 0.416866
RightLeg  31.8183 10.5438 6.74941
RightFoot  43.5195 -10.7527 21.1841
RightToes  -1.33073e-015 0 -3.6325e-017
Spine  -8.88002 27.4424 34.0524
Spine1  -7.76729 27.099 -31.6287
HEad  21.6322 -66.1123 -14.5961
LeftShoulder1  2.22988 -7.02675 -14.2784
LeftArm  -70.899 -26.5408 -6.70018
LeftForeArm  168.824 -76.709 -139.456
LeftHand  -0.246645 0.021 5.37786
RightShoulder  1.78253 8.80521 6.85781
RightArm  110.81 51.1585 164.995
RightForeArm  62.7609 62.7354 15.6583
RightHand  -0.24729 -0.0210522 -5.37781
LeftUpLeg  -10.829 -4.91392 -11.3839
LeftLeg  76.3399 -78.1582 -78.0658
LeftFoot  8.28154 3.37774 -19.6581
LeftToes  5.09284e-011 3.02203e-011 3.83118e-011
626
root  -6.81667 39.2474 11.9027 -4.29134 -52.9715 5.8172
RightUpLeg  11.1303 -0.17671 0.110636
RightLeg  32.1733 10.4392 6.77276
RightFoot  43.7623 -10.7524 21.0804
RightToes  -1.33073e-015 0 -3.6325e-017
Spine  -9.43067 26.7284 33.5046
Spine1  -6.95163 26.3985 -30.4093
HEad  21.596 -65.5752 -14.4719
LeftShoulder1  2.23397 -7.10832 -14.1423
LeftArm  -69.7327 -27.7672 -7.39027
LeftForeArm  161.867 -78.0546 -133.206
LeftHand  -0.246645 0.021 5.37786
RightShoulder  1.83996 8.89627 7.25964
RightArm  110.488 51.4457 164.386
RightForeArm  62.8422 61.8251 14.9622
RightHand  -0.24729 -0.0210522 -5.37781
LeftUpLeg  -11.0243 -4.81467 -11.2977
LeftLeg  71.6791 -77.8513 -73.3156
LeftFoot  8.17058 3.25028 -19.0437
LeftToes  5.09284e-011 3.02203e-011 3.83118e-011
627
root  -6.84803 39.2701 11.832 -4.55959 -54.255 6.14487
RightUpLeg  10.8708 0.437609 -0.0954529
RightLeg  32.3809 10.2264 6.68529
RightFoot  44.0165 -10.7155 20.9044
RightToes  -1.33073e-015 0 -3.6325e-017
Spine  -9.86993 26.0366 33.1445
Spine1  -6.24494 25.7238 -29.4667
HEad  21.8247 -65.101 -14.519
LeftShoulder1  2.2439 -7.23213 -13.9771
LeftArm  -68.6452 -29.0309 -8.04359
LeftForeArm  153.856 -79.0294 -126.673
LeftHand  -0.246645 0.021 5.37786
RightShoulder  1.86288 8.83439 7.5522
RightArm  110.324 51.7466 164.055
RightForeArm  62.8714 60.9807 14.3604
RightHand  -0.24729 -0.0210522 -5.37781
LeftUpLeg  -11.1577 -4.64302 -11.1393
LeftLeg  67.5164 -77.4762 -69.0679
LeftFoot  8.10755 3.09276 -18.2054
LeftToes  5.09284e-011 3.02203e-011 3.83118e-011
628
root  -6.88157 39.3016 11.768 -4.8246 -55.5862 6.43785
RightUpLeg  10.718 1.15308 -0.246459
RightLeg  32.4641 10.0717 6.60332
RightFoot  44.1638 -10.6553 20.7309
RightToes  -1.33073e-015 0 -3.6325e-017
Spine  -10.0905 25.277 32.941
Spine1  -5.93251 24.937 -28.8271
HEad  22.3117 -64.572 -14.7464
LeftShoulder1  2.20372 -7.22003 -13.5903
LeftArm  -67.1382 -29.981 -9.03576
LeftForeArm  147.134 -79.7891 -120.168
LeftHand  -0.246645 0.021 5.37786
RightShoulder  1.89933 8.82127 7.90236
RightArm  110.082 51.9522 163.743
RightForeArm  62.5892 60.2293 13.8778
RightHand  -0.24729 -0.0210522 -5.37781
LeftUpLeg  -11.2176 -4.60325 -10.966
LeftLeg  63.0517 -77.0492 -64.4645
LeftFoot  8.02157 2.90669 -17.2158
LeftToes  5.09284e-011 3.02203e-011 3.83118e-011
629
root  -6.91438 39.3311 11.7082 -5.12843 -56.9098 6.75117
RightUpLeg  10.5966 1.78384 -0.437752
RightLeg  32.5659 9.95296 6.54935
RightFoot  44.2257 -10.5438 20.4983
RightToes  -1.33073e-015 0 -3.6325e-017
Spine  -10.2856 24.5242 32.7108
Spine1  -5.70676 24.1257 -28.0969
HEad  22.5538 -63.9562 -14.8392
LeftShoulder1  2.16782 -7.19203 -13.2808
LeftArm  -65.7938 -30.5049 -9.94483
LeftForeArm  140.771 -80.3009 -114.09
LeftHand  -0.246645 0.021 5.37786
RightShoulder  1.94168 8.90844 8.16421
RightArm  109.738 52.1194 163.359
RightForeArm  62.3876 59.6434 13.5173
RightHand  -0.24729 -0.0210522 -5.37781
LeftUpLeg  -11.2375 -4.62909 -10.8064
LeftLeg  58.6669 -76.5418 -59.9189
LeftFoot  7.92756 2.73143 -16.2843
LeftToes  5.09284e-011 3.02203e-011 3.83118e-011
630
root  -6.94602 39.351 11.6459 -5.44275 -58.0922 7.0546
RightUpLeg  10.4692 2.21921 -0.638552
RightLeg  32.7444 9.78171 6.47814
RightFoot  44.2566 -10.3786 20.1786
RightToes  -1.33073e-015 0 -3.6325e-017
Spine  -10.6214 23.9381 32.4799
Spine1  -5.24851 23.5094 -27.3673
HEad  22.5318 -63.4744 -14.6274
LeftShoulder1  2.21241 -7.42971 -13.244
LeftArm  -64.9538 -30.9871 -10.3066
LeftForeArm  133.602 -80.6541 -107.748
LeftHand  -0.246645 0.021 5.37786
RightShoulder  1.9669 8.94905 8.33421
RightArm  109.473 52.3692 163.032
RightForeArm  62.3226 59.099 13.1854
RightHand  -0.24729 -0.0210522 -5.37781
LeftUpLeg  -11.2562 -4.57446 -10.6451
LeftLeg  55.416 -76.0374 -56.552
LeftFoot  7.89862 2.60816 -15.593
LeftToes  5.09284e-011 3.02203e-011 3.83118e-011
631
root  -6.98265 39.3639 11.5821 -5.74467 -59.0419 7.33347
RightUpLeg  10.379 2.56907 -0.772956
RightLeg  32.9046 9.58644 6.38467
RightFoot  44.2852 -10.2314 19.8939
RightToes  -1.33073e-015 0 -3.6325e-017
Spine  -10.9968 23.4837 32.3026
Spine1  -4.76934 23.0591 -26.9523
HEad  22.8015 -63.1957 -14.4606
LeftShoulder1  2.30222 -7.84527 -13.3
LeftArm  -64.3684 -31.5889 -10.3761
LeftForeArm  126.376 -80.8905 -101.186
LeftHand  -0.246645 0.021 5.37786
RightShoulder  1.99448 8.91859 8.62675
RightArm  109.413 52.6633 162.802
RightForeArm  62.0683 58.5007 12.8465
RightHand  -0.24729 -0.0210522 -5.37781
LeftUpLeg  -11.2513 -4.58905 -10.5132
LeftLeg  53.024 -75.5873 -54.0538
LeftFoot  7.96939 2.52754 -15.0713
LeftToes  5.09284e-011 3.02203e-011 3.83118e-011
632
root  -7.02679 39.3765 11.5237 -6.07674 -59.8139 7.63853
RightUpLeg  10.3638 2.92133 -0.875774
RightLeg  32.9626 9.46041 6.31255
RightFoot  44.3416 -10.1616 19.7419
RightToes  -1.33073e-015 0 -3.6325e-017
Spine  -11.3106 23.0273 32.0228
Spine1  -4.48007 22.5927 -26.5894
HEad  23.462 -62.8911 -14.679
LeftShoulder1  2.34555 -8.06214 -13.2935
LeftArm  -63.7441 -31.987 -10.6862
LeftForeArm  121.277 -81.0003 -96.24
LeftHand  -0.246645 0.021 5.37786
RightShoulder  2.03419 8.93857 8.95549
RightArm  109.545 52.8603 162.642
RightForeArm  61.6303 57.9563 12.5638
RightHand  -0.24729 -0.0210522 -5.37781
LeftUpLeg  -11.1928 -4.8526 -10.4598
LeftLeg  50.525 -75.0867 -51.3896
LeftFoot  8.11337 2.44284 -14.4769
LeftToes  5.09284e-011 3.02203e-011 3.83118e-011
633
root  -7.07143 39.3921 11.4712 -6.43929 -60.5076 7.98126
RightUpLeg  10.3865 3.2438 -1.00135
RightLeg  32.9455 9.39449 6.2635
RightFoot  44.4197 -10.1354 19.6627
RightToes  -1.33073e-015 0 -3.6325e-017
Spine  -11.6491 22.6222 31.5714
Spine1  -4.15885 22.149 -25.9059
HEad  23.9055 -62.4303 -14.9655
LeftShoulder1  2.3128 -7.94945 -13.1978
LeftArm  -63.1317 -32.0074 -11.3782
LeftForeArm  118.75 -81.0328 -93.7142
LeftHand  -0.246645 0.021 5.37786
RightShoulder  2.05171 9.00551 9.01429
RightArm  109.779 52.9307 162.588
RightForeArm  61.2646 57.5614 12.3682
RightHand  -0.24729 -0.0210522 -5.37781
LeftUpLeg  -11.126 -5.13609 -10.451
LeftLeg  48.1305 -74.5104 -48.8223
LeftFoot  8.29089 2.33 -13.7071
LeftToes  5.09284e-011 3.02203e-011 3.83118e-011
634
root  -7.11151 39.4114 11.4205 -6.74051 -61.0912 8.29196
RightUpLeg  10.4126 3.52631 -1.08836
RightLeg  32.8741 9.28546 6.17264
RightFoot  44.4514 -10.1013 19.587
RightToes  -1.33073e-015 0 -3.6325e-017
Spine  -12.0641 22.4242 31.1724
Spine1  -3.63833 21.9244 -25.2033
HEad  23.8263 -61.9939 -14.831
LeftShoulder1  2.24095 -7.71275 -12.9615
LeftArm  -62.6959 -31.9018 -12.1993
LeftForeArm  117.25 -81.0351 -92.3923
LeftHand  -0.246645 0.021 5.37786
RightShoulder  2.03319 8.99916 8.85754
RightArm  109.96 52.9516 162.598
RightForeArm  60.9919 57.2798 12.2324
RightHand  -0.24729 -0.0210522 -5.37781
LeftUpLeg  -11.1028 -5.11857 -10.4164
LeftLeg  46.7102 -74.0617 -47.3252
LeftFoot  8.474 2.20785 -12.8939
LeftToes  5.09284e-011 3.02203e-011 3.83118e-011
635
root  -7.15066 39.4345 11.3729 -6.91907 -61.4413 8.52606
RightUpLeg  10.4673 3.77736 -1.07615
RightLeg  32.702 9.10849 6.01302
RightFoot  44.4034 -10.0726 19.5526
RightToes  -1.33073e-015 0 -3.6325e-017
Spine  -12.4051 22.4225 31.0302
Spine1  -3.1918 21.935 -25.0308
HEad  23.6735 -61.7626 -14.4424
LeftShoulder1  2.18359 -7.56994 -12.6749
LeftArm  -62.4282 -31.8493 -12.752
LeftForeArm  116.084 -81.029 -91.4709
LeftHand  -0.246645 0.021 5.37786
RightShoulder  2.02082 8.93418 8.8417
RightArm  109.945 52.9494 162.494
RightForeArm  60.7159 57.0845 12.1456
RightHand  -0.24729 -0.0210522 -5.37781
LeftUpLeg  -11.0936 -4.9645 -10.3736
LeftLeg  46.1133 -73.8892 -46.7224
LeftFoot  8.63555 2.10137 -12.1952
LeftToes  5.09284e-011 3.02203e-011 3.83118e-011
